<svg xmlns="http://www.w3.org/2000/svg" width="44.484" height="44.579" viewBox="0 0 44.484 44.579">
  <path id="Path_1781" data-name="Path 1781" d="M29946.029,390.258a3.171,3.171,0,0,0,0-3.5c-1.055-.969-2.809-.969-3.512,0l-18.246,18.059-17.9-18.059a2.476,2.476,0,0,0-3.5,0,2.323,2.323,0,0,0,0,3.5l17.891,18.059-17.891,18.062a2.323,2.323,0,0,0,0,3.5,2.476,2.476,0,0,0,3.5,0l17.9-18.063,18.246,18.063c.7.969,2.457.969,3.512,0a3.171,3.171,0,0,0,0-3.5l-18.25-18.062Z" transform="translate(-29902.072 -386.029)" fill="#fff" fill-rule="evenodd"/>
</svg>
