<svg xmlns="http://www.w3.org/2000/svg" width="73.5" height="49" viewBox="0 0 73.5 49">
  <g id="Group_833" data-name="Group 833" transform="translate(-557.399 -348.4)">
    <g id="Path_1553" data-name="Path 1553" transform="translate(33.125 10)" fill="none" stroke-miterlimit="10">
      <path d="M589.2,382.553a2.4,2.4,0,0,0,2.4,2.4h2.017a2.4,2.4,0,0,0,1.694-.7l1.764-1.764a2.4,2.4,0,0,0,.7-1.695V362.161a2.4,2.4,0,0,0-.7-1.695l-1.764-1.764a2.4,2.4,0,0,0-1.694-.7H591.6a2.4,2.4,0,0,0-2.4,2.4Z" stroke="none"/>
      <path d="M 593.61328125 383.1500549316406 C 593.7722778320312 383.1500549316406 593.9219970703125 383.087890625 594.0349731445312 382.9749145507812 L 595.799072265625 381.2108764648438 C 595.9102783203125 381.0996704101562 595.9740600585938 380.9459533691406 595.9740600585938 380.7890930175781 L 595.9740600585938 362.1609191894531 C 595.9740600585938 362.004150390625 595.9102783203125 361.8504638671875 595.7990112304688 361.7391967773438 L 594.0348510742188 359.9750671386719 C 593.9219970703125 359.8621826171875 593.7722778320312 359.8000183105469 593.61328125 359.8000183105469 L 591.595947265625 359.8000183105469 C 591.266845703125 359.8000183105469 590.9990844726562 360.0678405761719 590.9990844726562 360.3970031738281 L 590.9990844726562 382.5531311035156 C 590.9990844726562 382.8822631835938 591.266845703125 383.1500549316406 591.595947265625 383.1500549316406 L 593.61328125 383.1500549316406 M 593.61328125 384.9500427246094 L 591.595947265625 384.9500427246094 C 590.27294921875 384.9500427246094 589.1990966796875 383.8761291503906 589.1990966796875 382.5531311035156 L 589.1990966796875 360.3970031738281 C 589.1990966796875 359.0739440917969 590.27294921875 358.0000305175781 591.595947265625 358.0000305175781 L 593.61328125 358.0000305175781 C 594.2501220703125 358.0000305175781 594.858642578125 358.2532043457031 595.3077392578125 358.7023620605469 L 597.07177734375 360.4664001464844 C 597.52099609375 360.9155578613281 597.7740478515625 361.5259704589844 597.7740478515625 362.1609191894531 L 597.7740478515625 380.7890930175781 C 597.7740478515625 381.4240417480469 597.52099609375 382.0345764160156 597.07177734375 382.4837341308594 L 595.3077392578125 384.2477111816406 C 594.858642578125 384.6968688964844 594.2501220703125 384.9500427246094 593.61328125 384.9500427246094 Z" stroke="none" fill="#4d6d91"/>
    </g>
    <g id="Rectangle_512" data-name="Rectangle 512" transform="translate(580.674 348.4)" fill="none" stroke="#4d6d91" stroke-miterlimit="10" stroke-width="1.8">
      <rect width="26.95" height="7.35" rx="1.174" stroke="none"/>
      <rect x="0.9" y="0.9" width="25.15" height="5.55" rx="0.274" fill="none"/>
    </g>
    <g id="Path_1554" data-name="Path 1554" transform="translate(6.25 5)" fill="none" stroke-miterlimit="10">
      <path d="M584.224,353.2H577.5a2.4,2.4,0,0,0-1.995,1.068l-3.84,5.76a1.167,1.167,0,0,1-.974.523h-4.9a2.4,2.4,0,0,0-2.4,2.4v19.706a2.4,2.4,0,0,0,2.4,2.4h4.9a1.167,1.167,0,0,1,.974.523l4.185,6.282a1.227,1.227,0,0,0,1.023.545h34.353a2.4,2.4,0,0,0,2.4-2.4V362.947a2.4,2.4,0,0,0-2.4-2.4h-6.121a1.168,1.168,0,0,1-.974-.523l-3.834-5.755a2.4,2.4,0,0,0-2-1.072H584.224Z" stroke="none"/>
      <path d="M 577.5009155273438 355 C 577.30078125 355 577.1148681640625 355.099609375 577.003662109375 355.2663269042969 L 573.1636962890625 361.025390625 C 572.6122436523438 361.8549194335938 571.6885375976562 362.3500061035156 570.6918334960938 362.3500061035156 L 565.7959594726562 362.3500061035156 C 565.466796875 362.3500061035156 565.198974609375 362.6177673339844 565.198974609375 362.9468994140625 L 565.198974609375 382.653076171875 C 565.198974609375 382.9822082519531 565.466796875 383.25 565.7959594726562 383.25 L 570.6918334960938 383.25 C 571.690185546875 383.25 572.615234375 383.7466735839844 573.1636962890625 384.5746765136719 L 577.1780395507812 390.6000366210938 L 611.2271118164062 390.6000366210938 C 611.5562744140625 390.6000366210938 611.8240966796875 390.3322448730469 611.8240966796875 390.0031127929688 L 611.8240966796875 362.9468994140625 C 611.8240966796875 362.6177673339844 611.5562744140625 362.3500061035156 611.2271118164062 362.3500061035156 L 605.1062622070312 362.3500061035156 C 604.10791015625 362.3500061035156 603.182861328125 361.8533935546875 602.6342163085938 361.0252990722656 L 598.8010864257812 355.2714538574219 C 598.6875610351562 355.1014709472656 598.499267578125 355 598.2973022460938 355 L 577.5009155273438 355 M 577.5009155273438 353.2000122070312 L 598.2973022460938 353.2000122070312 C 599.1016235351562 353.2000122070312 599.8508911132812 353.6022338867188 600.2980346679688 354.2719116210938 L 604.1322631835938 360.02734375 C 604.3486938476562 360.35400390625 604.7141723632812 360.5499877929688 605.1062622070312 360.5499877929688 L 611.2271118164062 360.5499877929688 C 612.5521850585938 360.5499877929688 613.6240844726562 361.6239013671875 613.6240844726562 362.9468994140625 L 613.6240844726562 390.0031127929688 C 613.6240844726562 391.3260498046875 612.5521850585938 392.4000244140625 611.2271118164062 392.4000244140625 L 576.8740844726562 392.4000244140625 C 576.8720703125 392.4000244140625 576.8701171875 392.4000549316406 576.8681030273438 392.4000549316406 C 576.4598999023438 392.4000549316406 576.0786743164062 392.1941528320312 575.8511352539062 391.8548583984375 L 571.6657104492188 385.5726928710938 C 571.4492797851562 385.2459716796875 571.0839233398438 385.0499877929688 570.6918334960938 385.0499877929688 L 565.7959594726562 385.0499877929688 C 564.4729614257812 385.0499877929688 563.3989868164062 383.97607421875 563.3989868164062 382.653076171875 L 563.3989868164062 362.9468994140625 C 563.3989868164062 361.6239013671875 564.4729614257812 360.5499877929688 565.7959594726562 360.5499877929688 L 570.6918334960938 360.5499877929688 C 571.0839233398438 360.5499877929688 571.4492797851562 360.35400390625 571.6657104492188 360.02734375 L 575.5060424804688 354.2677612304688 C 575.9512329101562 353.6001586914062 576.7005004882812 353.2000122070312 577.5009155273438 353.2000122070312 Z" stroke="none" fill="#4d6d91"/>
    </g>
    <g id="Path_1555" data-name="Path 1555" transform="translate(0 8.75)" fill="none" stroke-miterlimit="10">
      <path d="M567.2,359.2a2.4,2.4,0,0,0-2.4-2.4h-3.1a2.392,2.392,0,0,0-1.993,1.068l-1.907,2.856a2.412,2.412,0,0,0-.4,1.331v2.964a2.411,2.411,0,0,0,.4,1.331l1.852,2.771a1.178,1.178,0,0,1,.2.651v9.13a2.4,2.4,0,0,0,2.4,2.4H564.8a2.4,2.4,0,0,0,2.4-2.4Z" stroke="none"/>
      <path d="M 561.7007446289062 358.6000061035156 C 561.5015258789062 358.6000061035156 561.3173217773438 358.6983337402344 561.2080078125 358.8630676269531 L 559.3007202148438 361.7198181152344 C 559.234130859375 361.8207397460938 559.198974609375 361.9367065429688 559.198974609375 362.0552673339844 L 559.198974609375 365.0197448730469 C 559.198974609375 365.1384887695312 559.2341918945312 365.2544860839844 559.30078125 365.3553161621094 L 561.1530151367188 368.12646484375 C 561.4775390625 368.61572265625 561.6490478515625 369.1849975585938 561.6490478515625 369.7727966308594 L 561.6490478515625 378.9031066894531 C 561.6490478515625 379.2322387695312 561.9168701171875 379.5000305175781 562.2460327148438 379.5000305175781 L 564.8021850585938 379.5000305175781 C 565.1312866210938 379.5000305175781 565.3990478515625 379.2322387695312 565.3990478515625 378.9031066894531 L 565.3990478515625 359.1969299316406 C 565.3990478515625 358.8677978515625 565.1312866210938 358.6000061035156 564.8021850585938 358.6000061035156 L 561.7007446289062 358.6000061035156 M 561.7007446289062 356.8000183105469 L 564.8021850585938 356.8000183105469 C 566.1271362304688 356.8000183105469 567.1990356445312 357.8739318847656 567.1990356445312 359.1969299316406 L 567.1990356445312 378.9031066894531 C 567.1990356445312 380.2261047363281 566.1271362304688 381.3000183105469 564.8021850585938 381.3000183105469 L 562.2460327148438 381.3000183105469 C 560.9229125976562 381.3000183105469 559.8490600585938 380.2261047363281 559.8490600585938 378.9031066894531 L 559.8490600585938 369.7727966308594 C 559.8490600585938 369.5420227050781 559.7816772460938 369.3154602050781 559.6530151367188 369.1214904785156 L 557.8012084960938 366.3509216308594 C 557.5399780273438 365.9569396972656 557.3989868164062 365.4934997558594 557.3989868164062 365.0197448730469 L 557.3989868164062 362.0552673339844 C 557.3989868164062 361.5816345214844 557.5399780273438 361.1181945800781 557.8012084960938 360.7240905761719 L 559.7081909179688 357.8678283691406 C 560.1511840820312 357.2002258300781 560.9005737304688 356.8000183105469 561.7007446289062 356.8000183105469 Z" stroke="none" fill="#4d6d91"/>
    </g>
    <g id="Path_1556" data-name="Path 1556" transform="translate(13.125 8.75)" fill="none" stroke-miterlimit="10">
      <path d="M591.727,368.221a1.221,1.221,0,0,0-.9-.4H585l2.119-9.535a1.224,1.224,0,0,0-2.023-1.168L570.4,370.6a1.224,1.224,0,0,0,.827,2.127h5.823l-2.117,9.535a1.224,1.224,0,0,0,2.023,1.168l14.7-13.475A1.226,1.226,0,0,0,591.727,368.221Z" stroke="none"/>
      <path d="M 584.9667358398438 359.6840515136719 L 572.7037353515625 370.9251708984375 L 579.2903442382812 370.9251708984375 L 577.082763671875 380.8668212890625 L 589.3463134765625 369.6251220703125 L 582.7571411132812 369.6251220703125 L 584.9667358398438 359.6840515136719 M 585.925048828125 356.7999267578125 C 586.0131225585938 356.7999267578125 586.101806640625 356.8093872070312 586.1895141601562 356.8286743164062 C 586.8508911132812 356.9757080078125 587.2673950195312 357.631103515625 587.1204223632812 358.29052734375 L 585.0011596679688 367.8251342773438 L 590.8240356445312 367.8251342773438 C 591.1670532226562 367.8251342773438 591.4957885742188 367.968017578125 591.7265014648438 368.2212524414062 C 592.1837768554688 368.721435546875 592.1511840820312 369.4952392578125 591.6528930664062 369.9525756835938 L 576.9530639648438 383.4275512695312 C 576.6569213867188 383.6990661621094 576.248779296875 383.8073120117188 575.8587036132812 383.7215576171875 C 575.1991577148438 383.5745239257812 574.7826538085938 382.9191284179688 574.9296264648438 382.2597045898438 L 577.0468139648438 372.7251586914062 L 571.2240600585938 372.7251586914062 C 570.8810424804688 372.7251586914062 570.5543823242188 372.5801391601562 570.3215942382812 372.3290405273438 C 569.8641967773438 371.828857421875 569.8969116210938 371.0550537109375 570.3971557617188 370.5977172851562 L 585.0971069335938 357.1227416992188 C 585.3250122070312 356.9122619628906 585.6215209960938 356.7999267578125 585.925048828125 356.7999267578125 Z" stroke="none" fill="#4d6d91"/>
    </g>
    <g id="Group_831" data-name="Group 831" transform="translate(566.555 375.35)">
      <line id="Line_67" data-name="Line 67" x2="3.573" fill="none" stroke="#4d6d91" stroke-miterlimit="10" stroke-width="1.8"/>
      <line id="Line_68" data-name="Line 68" x2="3.573" transform="translate(0 4.56)" fill="none" stroke="#4d6d91" stroke-miterlimit="10" stroke-width="1.8"/>
    </g>
    <g id="Group_832" data-name="Group 832" transform="translate(591.869 355.189)">
      <line id="Line_69" data-name="Line 69" y2="3.573" transform="translate(4.56)" fill="none" stroke="#4d6d91" stroke-miterlimit="10" stroke-width="1.8"/>
      <line id="Line_70" data-name="Line 70" y2="3.573" fill="none" stroke="#4d6d91" stroke-miterlimit="10" stroke-width="1.8"/>
    </g>
    <line id="Line_71" data-name="Line 71" x2="3.573" transform="translate(618.751 378.498)" fill="none" stroke="#4d6d91" stroke-miterlimit="10" stroke-width="1.8"/>
    <line id="Line_72" data-name="Line 72" x2="3.573" transform="translate(618.751 386.12)" fill="none" stroke="#4d6d91" stroke-miterlimit="10" stroke-width="1.8"/>
    <line id="Line_73" data-name="Line 73" y2="29.094" transform="translate(613.981 366.852)" fill="none" stroke="#4d6d91" stroke-miterlimit="10" stroke-width="1.8"/>
  </g>
</svg>
