<svg xmlns="http://www.w3.org/2000/svg" width="42.056" height="56.55" viewBox="0 0 42.056 56.55">
  <path id="Bookmark_School_Education_Learning_University" data-name="Bookmark School Education Learning University" d="M39.985,2.5H11.071A6.841,6.841,0,0,0,4.5,9.569V51.981a6.841,6.841,0,0,0,6.571,7.069H39.985a6.841,6.841,0,0,0,6.571-7.069V9.569A6.841,6.841,0,0,0,39.985,2.5ZM17.642,5.328H33.413V23.46l-7.031-6.483a1.245,1.245,0,0,0-1.709,0L17.642,23.46ZM43.927,51.981a4.105,4.105,0,0,1-3.943,4.241H11.071a4.105,4.105,0,0,1-3.943-4.241V9.569a4.105,4.105,0,0,1,3.943-4.241h3.943V26.534a1.424,1.424,0,0,0,.765,1.284,1.233,1.233,0,0,0,1.4-.209l8.345-7.7,8.345,7.7a1.258,1.258,0,0,0,.854.339,1.227,1.227,0,0,0,.549-.13,1.424,1.424,0,0,0,.765-1.284V5.328h3.943a4.105,4.105,0,0,1,3.943,4.241V51.981Z" transform="translate(-4.5 -2.5)" fill="#50536c"/>
</svg>
