<svg id="Group" xmlns="http://www.w3.org/2000/svg" width="56.442" height="56.432" viewBox="0 0 56.442 56.432">
  <path id="Shape" d="M40.641,56.432A30.127,30.127,0,0,1,31.6,54.955a4.363,4.363,0,0,1-.651-.274,84.61,84.61,0,0,1-13.363-8.723C9.1,39.176,3.616,31.986,1.292,24.589c-1.915-6.095-1.7-11.516.636-16.113A18.031,18.031,0,0,1,10.225.5,5.012,5.012,0,0,1,12.384,0,5.474,5.474,0,0,1,16.94,2.594l5.923,9.428a5.271,5.271,0,0,1-.667,6.6c-.827.812-1.958,1.791-3.051,2.738l-.027.023c-.592.512-1.162,1.006-1.638,1.432a39.269,39.269,0,0,0,16.581,16l3.813-4.853a5.674,5.674,0,0,1,7.443-1.322c1.351.835,4.854,2.978,8.205,4.834a5.585,5.585,0,0,1,2.853,5.679,15.473,15.473,0,0,1-5.036,9.8A15.032,15.032,0,0,1,43.094,56.3,22.231,22.231,0,0,1,40.641,56.432ZM12.274,5.832a12.3,12.3,0,0,0-5.306,5.241c-1.634,3.208-1.728,7.177-.278,11.8C8.051,27.2,11.657,33.95,21.108,41.494a78.013,78.013,0,0,0,12.342,8.075,25.089,25.089,0,0,0,7.186,1.169,16.62,16.62,0,0,0,1.834-.1A9.582,9.582,0,0,0,47.692,48.6a9.91,9.91,0,0,0,3.063-6.152c-3.289-1.825-6.672-3.884-8.4-4.948l-.02-.008-.021,0-3.92,4.99A5.484,5.484,0,0,1,34.136,44.6a5.157,5.157,0,0,1-2.214-.5A45.3,45.3,0,0,1,12.464,25.468a5.412,5.412,0,0,1,1.044-6.716c.755-.684,1.469-1.3,2.194-1.927l.143-.124c.745-.642,1.448-1.249,2.093-1.861Z" transform="translate(0 0)" fill="#206543"/>
</svg>
