<svg xmlns="http://www.w3.org/2000/svg" width="43.05" height="39.462" viewBox="0 0 43.05 39.462">
  <g id="like" transform="translate(0 0)" fill="none">
    <path d="M30.94,0a11.813,11.813,0,0,0-9.415,4.853A11.8,11.8,0,0,0,12.11,0C5.433,0,0,5.856,0,13.054c0,4.294,1.946,7.307,3.51,9.727,4.545,7.031,15.975,15.78,16.459,16.149a2.534,2.534,0,0,0,3.11,0c.486-.368,11.915-9.118,16.459-16.149,1.564-2.42,3.511-5.433,3.511-9.727C43.05,5.855,37.617,0,30.94,0Z" stroke="none"/>
    <path d="M 12.11021423339844 2.000007629394531 C 6.535423278808594 2.000007629394531 1.999992370605469 6.958690643310547 1.999992370605469 13.05373954772949 C 1.999992370605469 16.75960922241211 3.694492340087891 19.38167953491211 5.189384460449219 21.69486808776855 C 6.9600830078125 24.43406867980957 10.21225357055664 27.94966888427734 14.59431457519531 31.86161804199219 C 18.08865356445312 34.9810791015625 21.05529403686523 37.24245834350586 21.18094444274902 37.33802032470703 C 21.28787422180176 37.41944885253906 21.40643310546875 37.46249008178711 21.52381324768066 37.46249008178711 C 21.64224433898926 37.46249008178711 21.76053428649902 37.41996002197266 21.86591339111328 37.33950805664062 L 21.87082481384277 37.33577728271484 C 21.98617362976074 37.24826812744141 33.45671463012695 28.50632858276367 37.85992431640625 21.69411849975586 C 39.35519409179688 19.38012886047363 41.04998397827148 16.75739860534668 41.04998397827148 13.05373954772949 C 41.04998397827148 6.958690643310547 36.51457214355469 2.000007629394531 30.93980407714844 2.000007629394531 C 29.43434524536133 2.000007629394531 27.97971343994141 2.359378814697266 26.6163330078125 3.068138122558594 C 25.27409362792969 3.765907287597656 24.0666446685791 4.798168182373047 23.12453460693359 6.053310394287109 L 21.52424430847168 8.185329437255859 L 19.92491340637207 6.052589416503906 C 17.99357414245605 3.477119445800781 15.14522361755371 2.000007629394531 12.11021423339844 2.000007629394531 M 12.11021423339844 7.62939453125e-06 C 15.81611442565918 7.62939453125e-06 19.25890350341797 1.830829620361328 21.52499389648438 4.852699279785156 C 23.79231452941895 1.832019805908203 27.23630523681641 7.62939453125e-06 30.93980407714844 7.62939453125e-06 C 37.61733245849609 7.62939453125e-06 43.04998397827148 5.854789733886719 43.04998397827148 13.05373954772949 C 43.04998397827148 17.34797859191895 41.10306549072266 20.36027908325195 39.53905487060547 22.7806282043457 C 34.9948844909668 29.81092834472656 23.56509399414062 38.56084823608398 23.07959365844727 38.92915725708008 C 22.15126419067383 39.6379280090332 20.90400886535645 39.64103698730469 19.96922302246094 38.92915725708008 C 19.48492431640625 38.56085968017578 8.055133819580078 29.81212997436523 3.509765625 22.7806282043457 C 1.945625305175781 20.36027908325195 -7.62939453125e-06 17.34797859191895 -7.62939453125e-06 13.05373954772949 C -7.62939453125e-06 5.855987548828125 5.432682037353516 7.62939453125e-06 12.11021423339844 7.62939453125e-06 Z" stroke="none" fill="#000"/>
  </g>
</svg>
