<svg xmlns="http://www.w3.org/2000/svg" width="28.762" height="19.119" viewBox="0 0 28.762 19.119">
  <path id="Default" d="M4.562,18c-.611,0,2.113.476,2.113,1.062A1.085,1.085,0,0,0,7.781,20.12ZM9.256,20.12a1.063,1.063,0,1,0,0-2.124ZM7.781,9.5a1.063,1.063,0,1,0,0,2.124Zm1.475,2.124a1.063,1.063,0,1,0,0-2.124ZM24.006,18a1.063,1.063,0,1,0,0,2.124Zm1.475,2.124a1.063,1.063,0,1,0,0-2.124ZM24.006,9.5a1.063,1.063,0,1,0,0,2.124Zm1.475,2.124a1.063,1.063,0,1,0,0-2.124ZM28.8,9.145v11.33h2.212V9.145Zm-1.844,13.1H6.306v2.124h20.65ZM4.462,20.474V9.145H2.25v11.33ZM26.956,5.25H6.306V7.374h20.65ZM6.306,22.244a1.808,1.808,0,0,1-1.844-1.77H2.25a3.978,3.978,0,0,0,4.056,3.895ZM28.8,20.474a1.808,1.808,0,0,1-1.844,1.77v2.124a3.978,3.978,0,0,0,4.056-3.895Zm2.212-11.33A3.978,3.978,0,0,0,26.956,5.25V7.374A1.808,1.808,0,0,1,28.8,9.145Zm-26.549,0a1.808,1.808,0,0,1,1.844-1.77V5.25A3.978,3.978,0,0,0,2.25,9.145ZM7.781,20.12H9.256V18H7.781Zm0-8.5H9.256V9.5H7.781Zm16.225,8.5h1.475V18H24.006Zm0-8.5h1.475V9.5H24.006ZM19.95,14.809A3.255,3.255,0,0,1,16.631,18V20.12a5.424,5.424,0,0,0,5.531-5.311ZM16.631,18a3.255,3.255,0,0,1-3.319-3.186H11.1a5.424,5.424,0,0,0,5.531,5.311Zm-3.319-3.186a3.255,3.255,0,0,1,3.319-3.186V9.5A5.424,5.424,0,0,0,11.1,14.809Zm3.319-3.186a3.255,3.255,0,0,1,3.319,3.186h2.212A5.424,5.424,0,0,0,16.631,9.5Z" transform="translate(-2.25 -5.25)" fill="#456385"/>
</svg>
