<svg id="gauge" xmlns="http://www.w3.org/2000/svg" width="25.525" height="23.259" viewBox="0 0 25.525 23.259">
  <g id="Group_37" data-name="Group 37" transform="translate(0)">
    <path id="Path_135" data-name="Path 135" d="M12.763,23.259C5.725,23.259,0,18.043,0,11.63S5.725,0,12.763,0,25.525,5.217,25.525,11.63,19.8,23.259,12.763,23.259Zm0-22.29c-6.451,0-11.7,4.782-11.7,10.66s5.248,10.66,11.7,10.66,11.7-4.782,11.7-10.66S19.214.969,12.763.969Z" transform="translate(0)" fill="#cc943f"/>
    <path id="Path_136" data-name="Path 136" d="M226.742,228.784a2.084,2.084,0,1,1,2.127-2.084A2.108,2.108,0,0,1,226.742,228.784Zm0-3.126a1.042,1.042,0,1,0,1.064,1.042A1.054,1.054,0,0,0,226.742,225.658Z" transform="translate(-213.979 -215.07)" fill="#cc943f"/>
    <path id="Path_137" data-name="Path 137" d="M63.669,63.637a.529.529,0,0,1-.2-.04L61.5,62.8a.518.518,0,0,1-.288-.681.535.535,0,0,1,.695-.282l1.964.8a.518.518,0,0,1,.288.681A.532.532,0,0,1,63.669,63.637ZM45,63.636a.532.532,0,0,1-.491-.322.518.518,0,0,1,.288-.681l1.964-.8a.534.534,0,0,1,.695.282.518.518,0,0,1-.288.681l-1.964.8A.532.532,0,0,1,45,63.636Zm1.3-3.594H44.172a.521.521,0,1,1,0-1.042H46.3a.521.521,0,1,1,0,1.042Zm18.14-.192H62.313a.521.521,0,1,1,0-1.042h2.126a.521.521,0,1,1,0,1.042Zm-8.975-1.107a.536.536,0,0,1-.376-.153.513.513,0,0,1,0-.737L60.352,52.7a.539.539,0,0,1,.752,0,.513.513,0,0,1,0,.737L55.84,58.59A.536.536,0,0,1,55.464,58.743Zm-8.5-1.885a.545.545,0,0,1-.2-.04l-1.963-.8a.518.518,0,0,1-.287-.681.536.536,0,0,1,.7-.281l1.963.8a.518.518,0,0,1,.287.681A.532.532,0,0,1,46.966,56.858Zm14.74,0a.532.532,0,0,1-.491-.322.518.518,0,0,1,.288-.681l1.965-.8a.537.537,0,0,1,.695.282.518.518,0,0,1-.288.681l-1.965.8A.543.543,0,0,1,61.705,56.858Zm-13.01-2.536a.536.536,0,0,1-.376-.153l-1.5-1.473a.513.513,0,0,1,0-.737.539.539,0,0,1,.752,0l1.5,1.473a.513.513,0,0,1,0,.737A.536.536,0,0,1,48.695,54.321Zm2.589-1.694a.532.532,0,0,1-.491-.322l-.813-1.924a.518.518,0,0,1,.288-.681.538.538,0,0,1,.695.282l.813,1.924a.518.518,0,0,1-.288.681A.541.541,0,0,1,51.284,52.627Zm6.105,0a.539.539,0,0,1-.2-.04.518.518,0,0,1-.288-.681l.814-1.923a.536.536,0,0,1,.695-.282.518.518,0,0,1,.288.681l-.814,1.923A.532.532,0,0,1,57.389,52.627Zm-3.113-.4a.526.526,0,0,1-.532-.521V49.622a.532.532,0,0,1,1.064,0v2.084A.527.527,0,0,1,54.275,52.227Z" transform="translate(-41.574 -46.823)" fill="#cc943f"/>
    <path id="Path_138" data-name="Path 138" d="M167.335,363.552h-9.572a.526.526,0,0,1-.532-.521V359.9a.526.526,0,0,1,.532-.521h9.572a.526.526,0,0,1,.532.521v3.126A.526.526,0,0,1,167.335,363.552Zm-9.04-1.042H166.8v-2.084h-8.508Z" transform="translate(-149.786 -344.111)" fill="#cc943f"/>
  </g>
</svg>
