<svg id="Calendar_Education_School_Learning_University" data-name="Calendar Education School Learning University" xmlns="http://www.w3.org/2000/svg" width="26.243" height="22.912" viewBox="0 0 26.243 22.912">
  <path id="Path_1591" data-name="Path 1591" d="M28.087,5.032h-3.28v-1.9a.657.657,0,0,0-1.312,0v1.9H7.749v-1.9a.657.657,0,0,0-1.312,0v1.9H3.156a.633.633,0,1,0,0,1.266H28.087a.633.633,0,1,0,0-1.266Z" transform="translate(-2.5 -2.5)" fill="#728b79"/>
  <path id="Path_1592" data-name="Path 1592" d="M28.087,6.5H3.156a.613.613,0,0,0-.656.558v14.5a3.068,3.068,0,0,0,3.28,2.789H25.463a3.068,3.068,0,0,0,3.28-2.789V7.058A.613.613,0,0,0,28.087,6.5Zm-16.4,11.155V13.193h7.873v4.462Zm7.873,1.116v4.462H11.685V18.771ZM3.812,13.193h6.561v4.462H3.812Zm7.873-1.116V7.616h7.873v4.462Zm9.185,1.116h6.561v4.462H20.87Zm6.561-1.116H20.87V7.616h6.561ZM10.373,7.616v4.462H3.812V7.616ZM3.812,21.559V18.771h6.561v4.462H5.78A1.841,1.841,0,0,1,3.812,21.559Zm21.651,1.673H20.87V18.771h6.561v2.789A1.841,1.841,0,0,1,25.463,23.233Z" transform="translate(-2.5 -1.437)" fill="#728b79"/>
</svg>
