<svg xmlns="http://www.w3.org/2000/svg" width="32.113" height="28.892" viewBox="0 0 32.113 28.892">
  <g id="Group_416" data-name="Group 416" transform="translate(0 0)">
    <path id="Path_307" data-name="Path 307" d="M4179.271,459.959v.539a11.292,11.292,0,0,0,9.641,11.174v1.992a3.342,3.342,0,0,0,5.483,2.577l5.3-4.455a11.827,11.827,0,0,0-.09-23.653h-8.552A11.8,11.8,0,0,0,4179.271,459.959Zm18.762,9.02-5.708,4.783a.126.126,0,0,1-.205-.1v-3.491a2.219,2.219,0,0,0-.045-.393,1.6,1.6,0,0,0-1.547-1.219,8.044,8.044,0,0,1-8.028-8.063v-.539a8.57,8.57,0,0,1,8.552-8.6h8.552a8.6,8.6,0,0,1,0,17.2h-.41A1.828,1.828,0,0,0,4198.032,468.978Zm-9.916-11.215a2.407,2.407,0,1,0,2.411,2.406A2.4,2.4,0,0,0,4188.116,457.764Zm4.8,2.406a2.411,2.411,0,1,1,2.411,2.409A2.417,2.417,0,0,1,4192.915,460.17Zm9.643-2.406a2.407,2.407,0,1,0,2.41,2.406A2.4,2.4,0,0,0,4202.558,457.764Z" transform="translate(-4179.271 -448.132)" fill="#ccc" fill-rule="evenodd"/>
  </g>
</svg>
