<svg id="_090_controls" data-name="090 – controls" xmlns="http://www.w3.org/2000/svg" width="59" height="59" viewBox="0 0 59 59">
  <path id="Path_2097" data-name="Path 2097" d="M0,0H59V59H0Z" fill="none" fill-rule="evenodd"/>
  <path id="Path_2098" data-name="Path 2098" d="M8.359,3h8.932a5.359,5.359,0,0,1,5.359,5.359v8.932a5.359,5.359,0,0,1-5.359,5.359H8.359A5.359,5.359,0,0,1,3,17.291V8.359A5.359,5.359,0,0,1,8.359,3Zm0,3.573A1.786,1.786,0,0,0,6.573,8.359v8.932a1.786,1.786,0,0,0,1.786,1.786h8.932a1.786,1.786,0,0,0,1.786-1.786V8.359a1.786,1.786,0,0,0-1.786-1.786ZM31.583,3h8.932a5.359,5.359,0,0,1,5.359,5.359v8.932a5.359,5.359,0,0,1-5.359,5.359H31.583a5.359,5.359,0,0,1-5.359-5.359V8.359A5.359,5.359,0,0,1,31.583,3Zm0,3.573A1.786,1.786,0,0,0,29.8,8.359v8.932a1.786,1.786,0,0,0,1.786,1.786h8.932A1.786,1.786,0,0,0,42.3,17.291V8.359a1.786,1.786,0,0,0-1.786-1.786Zm0,19.651h8.932a5.359,5.359,0,0,1,5.359,5.359v8.932a5.359,5.359,0,0,1-5.359,5.359H31.583a5.359,5.359,0,0,1-5.359-5.359V31.583A5.359,5.359,0,0,1,31.583,26.223Zm0,3.573A1.786,1.786,0,0,0,29.8,31.583v8.932A1.786,1.786,0,0,0,31.583,42.3h8.932A1.786,1.786,0,0,0,42.3,40.515V31.583A1.786,1.786,0,0,0,40.515,29.8ZM8.359,26.223h8.932a5.359,5.359,0,0,1,5.359,5.359v8.932a5.359,5.359,0,0,1-5.359,5.359H8.359A5.359,5.359,0,0,1,3,40.515V31.583A5.359,5.359,0,0,1,8.359,26.223Zm0,3.573a1.786,1.786,0,0,0-1.786,1.786v8.932A1.786,1.786,0,0,0,8.359,42.3h8.932a1.786,1.786,0,0,0,1.786-1.786V31.583A1.786,1.786,0,0,0,17.291,29.8Z" transform="translate(8.8 11.159)" fill="#ccc"/>
</svg>
