<svg xmlns="http://www.w3.org/2000/svg" width="31.363" height="31.396" viewBox="0 0 31.363 31.396">
  <path id="Path_1775" data-name="Path 1775" d="M30289.57,416.719a15.7,15.7,0,0,1,0-31.4,15.7,15.7,0,1,1,0,31.4Zm0-28.255a12.558,12.558,0,1,0,12.676,12.556A12.491,12.491,0,0,0,30289.57,388.464Zm0,10.594a1.973,1.973,0,0,1,2,1.962V407.3a1.972,1.972,0,0,1-2,1.962,1.938,1.938,0,0,1-1.781-1.962V401.02A1.94,1.94,0,0,1,30289.57,399.058Zm0-5.885a1.971,1.971,0,0,0,0,3.924,1.962,1.962,0,1,0,0-3.924Z" transform="translate(-30274 -385.323)" fill="#ccc" fill-rule="evenodd"/>
</svg>
