<svg xmlns="http://www.w3.org/2000/svg" width="27.215" height="27.243" viewBox="0 0 27.215 27.243">
  <path id="Path_1284" data-name="Path 1284" d="M21924.463,385.323h-19.109a4.146,4.146,0,0,0-4.055,4.086v19.069a4.146,4.146,0,0,0,4.055,4.088h19.109a4.02,4.02,0,0,0,4.051-4.088V389.409A4.02,4.02,0,0,0,21924.463,385.323ZM21904,389.409a1.338,1.338,0,0,1,1.352-1.361h19.109a1.341,1.341,0,0,1,1.348,1.361v19.069a1.342,1.342,0,0,1-1.348,1.362h-19.109a1.339,1.339,0,0,1-1.352-1.362Zm10.615,11.922a1.289,1.289,0,0,0,1.156-.934v-.344c2.125-.419,3.666-1.411,3.666-3.833v-.039c0-2.536-1.736-3.947-4.629-3.947a5.849,5.849,0,0,0-3.857,1.372,1.307,1.307,0,0,0-.582,1.031,1.474,1.474,0,0,0,1.348,1.336,1.584,1.584,0,0,0,.971-.307,3.186,3.186,0,0,1,2.121-.762c1.162,0,1.734.5,1.734,1.355v.039c0,.934-.771,1.448-2.312,1.658a1.081,1.081,0,0,0-.967,1.144l.193,1.3a1.265,1.265,0,0,0,1.158.934Zm-1.738,2.88v.038a1.662,1.662,0,0,0,1.738,1.619,1.623,1.623,0,0,0,1.543-1.619v-.038a1.623,1.623,0,0,0-1.543-1.621A1.663,1.663,0,0,0,21912.879,404.211Z" transform="translate(-21901.299 -385.323)" fill="#ccc" fill-rule="evenodd"/>
</svg>
