<svg id="_065_controls" data-name="065 – controls" xmlns="http://www.w3.org/2000/svg" width="59.817" height="59.817" viewBox="0 0 59.817 59.817">
  <path id="Path_2104" data-name="Path 2104" d="M0,0H59.817V59.817H0Z" fill="none" fill-rule="evenodd"/>
  <path id="Path_2105" data-name="Path 2105" d="M31.9,27.914h5.982a1.994,1.994,0,0,1,0,3.988H31.9v5.982a1.994,1.994,0,1,1-3.988,0V31.9H21.933a1.994,1.994,0,0,1,0-3.988h5.982V21.933a1.994,1.994,0,0,1,3.988,0Zm-1.994,31.9A29.908,29.908,0,1,1,59.817,29.908,29.909,29.909,0,0,1,29.908,59.817Zm0-3.988A25.921,25.921,0,1,0,3.988,29.908,25.92,25.92,0,0,0,29.908,55.829Z" fill="#fff"/>
</svg>
