<svg xmlns="http://www.w3.org/2000/svg" width="121.933" height="76.207" viewBox="0 0 121.933 76.207">
  <g id="handshake.1" transform="translate(0 -4.5)">
    <path id="Path_2106" data-name="Path 2106" d="M46.689,76.373a19.49,19.49,0,0,1-9.018-2.957c-2.266-1.489-13.636-10.039-23.1-17.96-1.575-1.321-3.917-3.77-6.183-6.137C6.71,47.567,5.186,45.956,4.4,45.291a2.542,2.542,0,0,1,3.282-3.882c.864.732,2.545,2.474,4.385,4.395,2.073,2.164,4.42,4.613,5.777,5.756,9.658,8.088,20.84,16.431,22.624,17.6a14.63,14.63,0,0,0,6.224,2.129c2.378,0,2.6-.61,2.693-.864a2.536,2.536,0,0,1,1.783-1.6,2.57,2.57,0,0,1,2.322.589,2.679,2.679,0,0,0,2.916.452,4.827,4.827,0,0,0,3-3.892,2.539,2.539,0,0,1,4.263-1.621c.635.589,2.332.732,3.958-.091.64-.32,2.119-1.245,1.946-2.86a2.54,2.54,0,0,1,3.968-2.362c.747.523,2.124.249,3.13-.615a2.977,2.977,0,0,0,.757-3.815C75.516,50.651,67.047,43.8,59.579,37.761c-4.13-3.338-8.053-6.513-10.959-9.242-.742.3-1.3.549-1.778.762a12.829,12.829,0,0,1-3.815,1.209C39.114,35.683,33.861,37.5,28.1,35.6a6.284,6.284,0,0,1-4.364-4.578c-1.219-5.157,3.5-12.188,6.976-15.663C39.846,6.226,46.237,2.8,57.887,8c10,4.476,20.017,7.976,20.119,8.012a2.542,2.542,0,1,1-1.671,4.8c-.1-.036-10.324-3.607-20.525-8.17C46.816,8.629,42.559,10.7,34.3,18.958c-3.47,3.47-6.147,8.662-5.614,10.893.076.325.218.666,1.011.93,2.484.833,6.2,1.29,9.8-4.08a2.539,2.539,0,0,1,1.859-1.113,8.4,8.4,0,0,0,3.409-.935c.833-.371,1.89-.848,3.6-1.468a2.54,2.54,0,0,1,2.657.594c2.779,2.779,7.138,6.3,11.751,10.034C71.045,40.5,79.606,47.43,82,52.419A8.077,8.077,0,0,1,79.967,62.3a8.308,8.308,0,0,1-5.827,2.088,8.621,8.621,0,0,1-4.242,4.43,9.823,9.823,0,0,1-6.376.92,10.006,10.006,0,0,1-5.289,4.882,7.908,7.908,0,0,1-5.777.061A8.743,8.743,0,0,1,46.689,76.373Z" transform="translate(14.277 4.334)" fill="#fff"/>
    <path id="Path_2107" data-name="Path 2107" d="M30.4,11.581H7.54a2.54,2.54,0,0,1,0-5.081H30.4a2.54,2.54,0,1,1,0,5.081Z" transform="translate(20.403 8.16)" fill="#fff"/>
    <path id="Path_2108" data-name="Path 2108" d="M20.583,23.573a2.54,2.54,0,0,1-1.423-4.649l7.428-4.989a2.541,2.541,0,0,1,2.835,4.217L22,23.142A2.518,2.518,0,0,1,20.583,23.573Z" transform="translate(73.605 36.72)" fill="#fff"/>
    <path id="Path_2109" data-name="Path 2109" d="M31.279,33.325a2.53,2.53,0,0,1-1.57-.544c-2.677-2.114-14.2-14.119-15.5-15.48a2.54,2.54,0,0,1,3.668-3.516c5.03,5.243,13.164,13.57,14.983,15a2.539,2.539,0,0,1,.422,3.567A2.567,2.567,0,0,1,31.279,33.325Z" transform="translate(55.091 34.681)" fill="#fff"/>
    <path id="Path_2110" data-name="Path 2110" d="M27.241,32.281a2.552,2.552,0,0,1-1.585-.554c-3.77-3.018-12.894-12.869-12.986-12.966a2.542,2.542,0,1,1,3.744-3.44c1.727,1.88,9.374,10,12.417,12.437a2.538,2.538,0,0,1-1.59,4.522Z" transform="translate(48.968 40.806)" fill="#fff"/>
    <path id="Path_2111" data-name="Path 2111" d="M25.24,33.286a2.534,2.534,0,0,1-1.636-.6c-3.744-3.16-10.837-10.679-12.92-12.91a2.541,2.541,0,1,1,3.714-3.47c1.448,1.55,8.86,9.44,12.483,12.493a2.543,2.543,0,0,1-1.641,4.486Z" transform="translate(40.807 44.881)" fill="#fff"/>
    <path id="Path_2112" data-name="Path 2112" d="M17.782,55.3H2.54A2.541,2.541,0,0,1,0,52.764V7.039A2.538,2.538,0,0,1,2.693,4.5c5.233.31,22.644,1.646,27,5.772a2.528,2.528,0,0,1,.782,2.063C29.32,25.547,20.566,52.413,20.2,53.551A2.538,2.538,0,0,1,17.782,55.3Zm-12.7-5.081H15.928c1.89-5.965,7.982-25.733,9.328-36.859-3.2-1.555-12.01-2.957-20.175-3.6Z" fill="#fff"/>
    <path id="Path_2113" data-name="Path 2113" d="M49.951,56.306H34.709a2.54,2.54,0,0,1-2.449-1.865C30.37,47.592,20.54,19.517,17.4,14.462A2.562,2.562,0,0,1,17.12,12.4a2.528,2.528,0,0,1,1.357-1.58C18.939,10.606,30,5.5,49.951,5.5a2.538,2.538,0,0,1,2.54,2.54V53.765A2.541,2.541,0,0,1,49.951,56.306ZM36.609,51.225h10.8V10.611a82.74,82.74,0,0,0-24.29,3.861C27.088,22.926,34.2,43.381,36.609,51.225Z" transform="translate(69.442 4.079)" fill="#fff"/>
  </g>
</svg>
